<mxfile host="app.diagrams.net" agent="Mozilla/5.0 (Windows NT 10.0; Win64; x64) AppleWebKit/537.36 (KHTML, like Gecko) Chrome/131.0.0.0 Safari/537.36" version="25.0.3">
  <diagram name="Pagina-1" id="WHKnPtybZQR6Gd2F-QlK">
    <mxGraphModel dx="1167" dy="619" grid="1" gridSize="10" guides="1" tooltips="1" connect="1" arrows="1" fold="1" page="1" pageScale="1" pageWidth="827" pageHeight="1169" math="0" shadow="0">
      <root>
        <mxCell id="0" />
        <mxCell id="1" parent="0" />
        <mxCell id="3UAXlMxuEghZss0i86il-1" value="" style="rounded=0;whiteSpace=wrap;html=1;fillStyle=cross-hatch;gradientColor=none;gradientDirection=radial;fillColor=none;" vertex="1" parent="1">
          <mxGeometry x="140" y="166" width="500" height="264" as="geometry" />
        </mxCell>
        <mxCell id="3UAXlMxuEghZss0i86il-2" value="Elenco Utenti" style="shape=umlLifeline;perimeter=lifelinePerimeter;whiteSpace=wrap;html=1;container=0;dropTarget=0;collapsible=0;recursiveResize=0;outlineConnect=0;portConstraint=eastwest;newEdgeStyle={&quot;edgeStyle&quot;:&quot;elbowEdgeStyle&quot;,&quot;elbow&quot;:&quot;vertical&quot;,&quot;curved&quot;:0,&quot;rounded&quot;:0};" vertex="1" parent="1">
          <mxGeometry x="320" y="70" width="100" height="390" as="geometry" />
        </mxCell>
        <mxCell id="3UAXlMxuEghZss0i86il-3" value="" style="html=1;points=[];perimeter=orthogonalPerimeter;outlineConnect=0;targetShapes=umlLifeline;portConstraint=eastwest;newEdgeStyle={&quot;edgeStyle&quot;:&quot;elbowEdgeStyle&quot;,&quot;elbow&quot;:&quot;vertical&quot;,&quot;curved&quot;:0,&quot;rounded&quot;:0};" vertex="1" parent="3UAXlMxuEghZss0i86il-2">
          <mxGeometry x="45" y="80" width="10" height="260" as="geometry" />
        </mxCell>
        <mxCell id="3UAXlMxuEghZss0i86il-4" value="" style="html=1;verticalAlign=bottom;endArrow=block;edgeStyle=elbowEdgeStyle;elbow=horizontal;curved=0;rounded=0;" edge="1" parent="1" target="3UAXlMxuEghZss0i86il-3">
          <mxGeometry relative="1" as="geometry">
            <mxPoint x="195" y="150" as="sourcePoint" />
            <Array as="points">
              <mxPoint x="280" y="150" />
            </Array>
            <mxPoint as="offset" />
          </mxGeometry>
        </mxCell>
        <mxCell id="3UAXlMxuEghZss0i86il-5" value="modificaUtente()" style="edgeLabel;html=1;align=center;verticalAlign=middle;resizable=0;points=[];" vertex="1" connectable="0" parent="3UAXlMxuEghZss0i86il-4">
          <mxGeometry x="0.1479" relative="1" as="geometry">
            <mxPoint x="-13" y="-10" as="offset" />
          </mxGeometry>
        </mxCell>
        <mxCell id="3UAXlMxuEghZss0i86il-10" value="&lt;font style=&quot;font-size: 7px;&quot;&gt;setNome(Stirng nome)&lt;br&gt;setCognome(Stirng cognome)&lt;/font&gt;&lt;div&gt;&lt;font style=&quot;font-size: 7px;&quot;&gt;setNumTel(String numTel)&lt;/font&gt;&lt;/div&gt;&lt;div&gt;&lt;font style=&quot;font-size: 7px;&quot;&gt;setEmail(String email)&lt;/font&gt;&lt;/div&gt;&lt;div&gt;&lt;font style=&quot;font-size: 7px;&quot;&gt;setUsername(String username)&lt;/font&gt;&lt;/div&gt;&lt;div&gt;&lt;font style=&quot;font-size: 7px;&quot;&gt;setPassword(String password)&lt;/font&gt;&lt;/div&gt;&lt;div&gt;&lt;font style=&quot;font-size: 7px;&quot;&gt;salvaUtentiInfoCSV()&lt;/font&gt;&lt;/div&gt;" style="html=1;verticalAlign=bottom;endArrow=block;edgeStyle=elbowEdgeStyle;elbow=horizontal;curved=0;rounded=0;" edge="1" parent="1" source="3UAXlMxuEghZss0i86il-3" target="3UAXlMxuEghZss0i86il-15">
          <mxGeometry x="-0.0256" y="10" relative="1" as="geometry">
            <mxPoint x="380" y="160" as="sourcePoint" />
            <Array as="points">
              <mxPoint x="465" y="160" />
            </Array>
            <mxPoint x="570" y="160" as="targetPoint" />
            <mxPoint as="offset" />
          </mxGeometry>
        </mxCell>
        <mxCell id="3UAXlMxuEghZss0i86il-11" value="alt" style="rounded=0;whiteSpace=wrap;html=1;fillColor=none;" vertex="1" parent="1">
          <mxGeometry x="140" y="166" width="40" height="20" as="geometry" />
        </mxCell>
        <mxCell id="3UAXlMxuEghZss0i86il-12" value="" style="endArrow=none;dashed=1;html=1;rounded=0;exitX=0;exitY=0.525;exitDx=0;exitDy=0;exitPerimeter=0;entryX=1.002;entryY=0.607;entryDx=0;entryDy=0;entryPerimeter=0;" edge="1" parent="1" target="3UAXlMxuEghZss0i86il-1">
          <mxGeometry width="50" height="50" relative="1" as="geometry">
            <mxPoint x="142.5" y="327.62" as="sourcePoint" />
            <mxPoint x="962.5" y="328.37" as="targetPoint" />
            <Array as="points" />
          </mxGeometry>
        </mxCell>
        <mxCell id="3UAXlMxuEghZss0i86il-13" value="return" style="html=1;verticalAlign=bottom;endArrow=open;dashed=1;endSize=8;edgeStyle=elbowEdgeStyle;elbow=vertical;curved=0;rounded=0;" edge="1" parent="1">
          <mxGeometry relative="1" as="geometry">
            <mxPoint x="200.0000000000001" y="310" as="targetPoint" />
            <Array as="points">
              <mxPoint x="335" y="310" />
              <mxPoint x="300" y="310" />
            </Array>
            <mxPoint x="365" y="310.23" as="sourcePoint" />
          </mxGeometry>
        </mxCell>
        <mxCell id="3UAXlMxuEghZss0i86il-14" value="&lt;font style=&quot;font-size: 8px;&quot;&gt;GestioneFileEsternoUtenti&lt;/font&gt;" style="shape=umlLifeline;perimeter=lifelinePerimeter;whiteSpace=wrap;html=1;container=0;dropTarget=0;collapsible=0;recursiveResize=0;outlineConnect=0;portConstraint=eastwest;newEdgeStyle={&quot;edgeStyle&quot;:&quot;elbowEdgeStyle&quot;,&quot;elbow&quot;:&quot;vertical&quot;,&quot;curved&quot;:0,&quot;rounded&quot;:0};" vertex="1" parent="1">
          <mxGeometry x="570" y="70" width="100" height="390" as="geometry" />
        </mxCell>
        <mxCell id="3UAXlMxuEghZss0i86il-15" value="" style="html=1;points=[];perimeter=orthogonalPerimeter;outlineConnect=0;targetShapes=umlLifeline;portConstraint=eastwest;newEdgeStyle={&quot;edgeStyle&quot;:&quot;elbowEdgeStyle&quot;,&quot;elbow&quot;:&quot;vertical&quot;,&quot;curved&quot;:0,&quot;rounded&quot;:0};" vertex="1" parent="3UAXlMxuEghZss0i86il-14">
          <mxGeometry x="45" y="80" width="10" height="150" as="geometry" />
        </mxCell>
        <mxCell id="3UAXlMxuEghZss0i86il-18" value="return" style="html=1;verticalAlign=bottom;endArrow=open;dashed=1;endSize=8;edgeStyle=elbowEdgeStyle;elbow=horizontal;curved=0;rounded=0;" edge="1" parent="1" target="3UAXlMxuEghZss0i86il-3">
          <mxGeometry relative="1" as="geometry">
            <mxPoint x="400" y="244.62" as="targetPoint" />
            <Array as="points">
              <mxPoint x="500" y="300" />
            </Array>
            <mxPoint x="570" y="300" as="sourcePoint" />
          </mxGeometry>
        </mxCell>
        <mxCell id="3UAXlMxuEghZss0i86il-19" value="return" style="html=1;verticalAlign=bottom;endArrow=open;dashed=1;endSize=8;edgeStyle=elbowEdgeStyle;elbow=vertical;curved=0;rounded=0;" edge="1" parent="1">
          <mxGeometry relative="1" as="geometry">
            <mxPoint x="195" y="400" as="targetPoint" />
            <Array as="points">
              <mxPoint x="335" y="400" />
              <mxPoint x="300" y="400" />
            </Array>
            <mxPoint x="365" y="400.23" as="sourcePoint" />
          </mxGeometry>
        </mxCell>
        <mxCell id="3UAXlMxuEghZss0i86il-20" value="&lt;font style=&quot;font-size: 7px;&quot;&gt;[else]&lt;/font&gt;" style="text;html=1;align=center;verticalAlign=middle;whiteSpace=wrap;rounded=0;rotation=0;" vertex="1" parent="1">
          <mxGeometry x="380" y="333" width="19" as="geometry" />
        </mxCell>
        <mxCell id="3UAXlMxuEghZss0i86il-21" value="return" style="html=1;verticalAlign=bottom;endArrow=open;dashed=1;endSize=8;edgeStyle=elbowEdgeStyle;elbow=horizontal;curved=0;rounded=0;" edge="1" parent="1">
          <mxGeometry relative="1" as="geometry">
            <mxPoint x="375" y="390" as="targetPoint" />
            <Array as="points">
              <mxPoint x="500" y="390" />
            </Array>
            <mxPoint x="570" y="390" as="sourcePoint" />
          </mxGeometry>
        </mxCell>
        <mxCell id="3UAXlMxuEghZss0i86il-27" value="&lt;font style=&quot;font-size: 7px;&quot;&gt;[ConfermaButtonPressed == ture]&lt;/font&gt;" style="text;html=1;align=center;verticalAlign=middle;resizable=0;points=[];autosize=1;strokeColor=none;fillColor=none;" vertex="1" parent="1">
          <mxGeometry x="370" y="156" width="130" height="30" as="geometry" />
        </mxCell>
        <mxCell id="3UAXlMxuEghZss0i86il-28" value="Utente" style="shape=umlLifeline;perimeter=lifelinePerimeter;whiteSpace=wrap;html=1;container=0;dropTarget=0;collapsible=0;recursiveResize=0;outlineConnect=0;portConstraint=eastwest;newEdgeStyle={&quot;edgeStyle&quot;:&quot;elbowEdgeStyle&quot;,&quot;elbow&quot;:&quot;vertical&quot;,&quot;curved&quot;:0,&quot;rounded&quot;:0};" vertex="1" parent="1">
          <mxGeometry x="140" y="70" width="100" height="390" as="geometry" />
        </mxCell>
        <mxCell id="3UAXlMxuEghZss0i86il-29" value="" style="html=1;points=[];perimeter=orthogonalPerimeter;outlineConnect=0;targetShapes=umlLifeline;portConstraint=eastwest;newEdgeStyle={&quot;edgeStyle&quot;:&quot;elbowEdgeStyle&quot;,&quot;elbow&quot;:&quot;vertical&quot;,&quot;curved&quot;:0,&quot;rounded&quot;:0};" vertex="1" parent="3UAXlMxuEghZss0i86il-28">
          <mxGeometry x="45" y="70" width="10" height="270" as="geometry" />
        </mxCell>
      </root>
    </mxGraphModel>
  </diagram>
</mxfile>
